<svg width="46" height="46" viewBox="0 0 46 46" fill="none" xmlns="http://www.w3.org/2000/svg">
<path d="M11.1227 42.7207C14.6805 44.859 18.7414 45.991 22.9191 45.991C35.5691 45.991 46 35.668 46 23C46 10.341 35.5871 0 22.9191 0C10.2871 0 0.0179688 10.3141 0.0179688 22.991C0.0179688 27.2227 1.15 31.3195 3.28828 34.8773L0 46L11.1227 42.7207ZM2.71328 22.991C2.71328 11.7965 11.7785 2.69531 22.9191 2.69531C34.1586 2.69531 43.3047 11.7965 43.3047 22.991C43.3047 34.1855 34.1586 43.2867 22.9191 43.2867C19.0469 43.2867 15.2914 42.1906 12.048 40.1152L11.527 39.7828L3.98008 42.0109L6.2082 34.4641L5.87578 33.943C3.80938 30.7086 2.71328 26.9172 2.71328 22.991Z" fill="#3A2C99"/>
<path d="M11.1945 18.7594C11.6438 21.0953 12.9645 25.5875 16.8098 29.4418C20.6551 33.2961 25.1473 34.6078 27.4922 35.057C30.1695 35.5691 34.0957 35.641 36.0184 33.7273L37.0875 32.6582C37.6266 32.1191 37.9231 31.4004 37.9231 30.6367C37.9231 29.8731 37.6266 29.1543 37.0875 28.6152L32.811 24.3387C32.2719 23.7996 31.5531 23.5031 30.7895 23.5031C30.0258 23.5031 29.307 23.7996 28.768 24.3387L27.6988 25.4078C27.043 26.0637 25.8121 26.0637 25.1563 25.4168L20.8887 20.9695C20.8797 20.9606 20.8797 20.9606 20.8707 20.9516C20.2149 20.2957 20.2149 19.2356 20.8707 18.5797L21.9399 17.5106C23.0539 16.3965 23.0539 14.5816 21.9399 13.4676L17.6453 9.16407C16.5313 8.05001 14.7164 8.05001 13.6024 9.16407L12.5332 10.2332C10.9969 11.7606 10.4848 15.0309 11.1945 18.7594ZM14.4379 12.1379C15.561 11.0418 15.4981 11.0238 15.6238 11.0238C15.6688 11.0238 15.7047 11.0418 15.7406 11.0688C20.2508 15.6059 20.0711 15.3363 20.0711 15.4621C20.0711 15.507 20.0531 15.543 20.0262 15.5789L18.957 16.6481C17.25 18.3551 17.25 21.1133 18.9481 22.8203L23.2156 27.2676C23.2246 27.2766 23.2246 27.2766 23.2336 27.2856C24.9406 28.9926 27.8875 28.9926 29.5945 27.2856L30.6637 26.2164C30.7266 26.1535 30.8344 26.1535 30.8973 26.2164C35.4074 30.7535 35.2277 30.484 35.2277 30.6098C35.2277 30.6547 35.2098 30.6906 35.1828 30.7266L34.1047 31.8047C33.368 32.5414 31.032 32.9727 27.9863 32.3977C25.9559 32.0113 22.0477 30.8613 18.7055 27.5281C15.3633 24.1949 14.2223 20.2867 13.836 18.2473C13.261 15.2016 13.7012 12.8656 14.4379 12.1379Z" fill="#3A2C99"/>
</svg>
