<svg width="46" height="46" viewBox="0 0 46 46" fill="none" xmlns="http://www.w3.org/2000/svg">
<path d="M11.1227 42.7207C14.6805 44.859 18.7414 45.991 22.9191 45.991C35.5691 45.991 46 35.668 46 23C46 10.341 35.5871 0 22.9191 0C10.2871 0 0.0179687 10.3141 0.0179687 22.991C0.0179687 27.2227 1.15 31.3195 3.28828 34.8773L0 46L11.1227 42.7207ZM2.71328 22.991C2.71328 11.7965 11.7785 2.69531 22.9191 2.69531C34.1586 2.69531 43.3047 11.7965 43.3047 22.991C43.3047 34.1855 34.1586 43.2867 22.9191 43.2867C19.0469 43.2867 15.2914 42.1906 12.048 40.1152L11.527 39.7828L3.98008 42.0109L6.2082 34.4641L5.87578 33.943C3.80938 30.7086 2.71328 26.9172 2.71328 22.991Z" fill="white"/>
</svg>
